<svg xmlns="http://www.w3.org/2000/svg" viewBox="0 0 480 512"><path fill="#7b16ff" d="M198.45 0h82.93c2.95.81 5.71 2.94 6.35 6.06.56 3.3.25 6.66.27 9.98-.05 10.69.09 21.38-.05 32.06.11 3.85-3.05 7.51-6.91 7.78-5.66.31-11.33 0-17 .15-.09 3.18-.08 6.36.06 9.54 45.38 5 88.5 26.34 120.98 58.27 24.67 24.12 43.37 54.36 53.6 87.33 9.41 30.05 11.69 62.29 6.65 93.36-6.08 38.06-23.23 74.21-48.58 103.21-24.7 28.53-57.17 50.32-93.06 62.03-44.51 14.74-94.09 13.42-137.74-3.7-28.92-11.17-55.22-28.98-76.53-51.48-25.51-26.82-43.85-60.47-52.14-96.57-7.78-33.49-6.89-68.96 2.57-102.01 10.97-38.7 33.55-73.92 63.83-100.36 31.28-27.39 70.83-45.42 112.2-50.17.11-3.16.15-6.32.13-9.48-5.69-.14-11.39.28-17.07-.12-3.85-.34-7-3.95-6.93-7.8-.03-13.37-.04-26.74 0-40.11-.14-3.85 2.89-6.97 6.44-7.97M208 16c-.02 8 .07 16-.01 24 5.33.08 10.65-.14 15.97.01 4.29-.14 8.12 3.68 8.05 7.95L232 64.19c5.33-.21 10.66-.19 15.99.01.14-5.76-.27-11.52.1-17.26.35-3.85 3.98-7 7.83-6.92 5.35-.17 10.71.06 16.07-.02-.03-8-.01-16 0-24-21.33.02-42.66.02-63.99 0m25.07 64.14c-37.11 1.21-73.88 13.21-104.22 34.68-29.69 20.93-53.35 50.45-66.78 84.24-23.31 57.22-17.39 125.62 16.34 177.52 16.7 26.07 39.93 47.91 66.97 62.98 22.29 12.49 47.14 20.39 72.54 23.15 46.48 5.36 94.97-6.37 133.18-33.57 35.65-24.81 62.08-62.42 73.65-104.27 15.35-54.48 5.99-115.69-26.42-162.3-19.04-27.86-45.73-50.43-76.37-64.59-27.64-12.95-58.42-18.88-88.89-17.84zM42.36 34.36c2.93-3.17 8.31-3.15 11.25-.01 8.07 7.95 16.07 15.99 24.05 24.03 2.92 2.7 3.13 7.68.5 10.64-3.45 3.82-7.29 7.26-10.84 10.99 4.35 4.37 8.75 8.7 13.07 13.11 26.77-23.92 58.81-41.93 93.34-51.88 1.64 5.08 2.95 10.26 4.43 15.39-39.06 11.19-75.05 33.03-102.7 62.83-30.41 32.59-50.58 74.56-56.94 118.69-5.75 38.8-1.54 79.14 12.66 115.74 20.29 53.13 61.97 97.62 113.68 121.29 44.28 20.63 95.35 25.93 143.06 15.73 39.42-8.3 76.42-27.64 105.77-55.23 27.05-25.32 47.54-57.56 59.03-92.78 16.38-50.06 14.86-105.87-4.73-154.8-12.08-30.35-31.02-57.94-54.99-80.13-25.78-24-57.37-41.67-91.24-51.31 1.48-5.13 2.94-10.25 4.4-15.39 34.57 9.84 66.63 27.94 93.4 51.87 4.35-4.39 8.76-8.73 13.1-13.14-3.54-3.7-7.39-7.12-10.8-10.94-2.7-2.96-2.45-7.98.46-10.72 7.96-8.03 15.96-16.03 23.99-24 2.95-3.15 8.4-3.09 11.34.05 10.72 10.63 21.39 21.32 32.03 32.03 3.37 3.11 2.8 8.75-.39 11.78-8.08 7.64-15.75 15.71-23.71 23.47-2.75 2.85-7.76 3.19-10.69.45-3.75-3.48-7.25-7.22-10.92-10.78-4.32 4.26-8.6 8.56-12.88 12.87 9.64 10 18.57 20.72 26.42 32.19 26.92 38.82 41.92 85.7 42.49 132.94v6.24c-.81 44.24-14.06 88.19-38.19 125.3-18.76 29.16-43.84 54.22-73 72.98-37.09 24.1-81 37.33-125.21 38.14h-8.11c-47.28-1.05-94.14-16.35-132.69-43.79-41.19-28.86-73.09-70.84-89.59-118.38C4.85 326.03.56 300.88 0 275.67v-7.36c.41-16.99 2.38-33.96 6.3-50.5 9.93-42.67 32.03-82.28 62.59-113.61-4.29-4.29-8.58-8.59-12.88-12.87-3.52 3.38-6.85 6.95-10.39 10.31-2.1 2.15-5.42 2.94-8.26 1.93-2.77-.92-4.58-3.35-6.53-5.36-6.75-6.94-13.73-13.65-20.47-20.59-3.13-2.93-3.16-8.31-.01-11.24 10.63-10.7 21.32-21.37 32.01-32.02M27.42 72c4.08 4.32 8.36 8.44 12.59 12.62 6.92-6.81 13.79-13.69 20.61-20.61-4.18-4.23-8.3-8.51-12.62-12.59C41.1 58.24 34.24 65.1 27.42 72m391.94-8c6.83 6.92 13.7 13.8 20.63 20.62 4.26-4.15 8.47-8.35 12.61-12.62-6.82-6.93-13.69-13.79-20.61-20.62-4.27 4.14-8.48 8.36-12.63 12.62zM225.5 120.74c29.59-3.05 60.03 3.36 86.09 17.67 29.96 16.27 54.27 42.73 67.87 74 11.47 26.08 15.22 55.52 10.52 83.63-7.46 46.77-38.45 88.71-80.31 110.57-24.62 13-52.93 19.2-80.72 16.93-27.67-1.98-54.63-12.08-77.06-28.37-26.6-19.14-46.97-46.9-56.87-78.17-8.46-26.42-9.28-55.23-2.28-82.08 8.12-31.65 26.88-60.35 52.26-80.88 22.87-18.53 51.14-30.51 80.5-33.3m2.49 16.33c-12.39 2.1-24.17 7.91-33.15 16.75-13.28 12.85-20.08 31.89-18.57 50.24 1.19 12.83 8.97 23.97 18.17 32.54 14.98 13.65 33.49 22.77 52.48 29.44 19.17 7.68 37.56 18.15 52.32 32.75 10.28 10.33 18.44 23.46 20.25 38.15 2.39 20.17-4.77 40.62-17.16 56.44 20.16-10.37 37.87-25.64 50.44-44.56 17-24.95 24.9-55.75 22.87-85.81-1.74-30.74-14.24-60.82-35.16-83.45-20.16-22.12-48.01-36.97-77.54-41.67-11.53-1.84-23.36-2.62-34.95-.82m-108.67 71.28c-13.74 26.41-18.26 57.32-13.42 86.64 4.71 29.53 19.56 57.36 41.68 77.51 23.13 21.41 54.07 33.96 85.52 35.27 6.66.5 13.35.04 19.93-1.05 14.36-2.59 27.75-10.43 36.9-21.83 9.95-12.2 14.77-28.28 13.91-43.94-1-13.7-9.38-25.56-19.32-34.49-14.59-12.91-32.31-21.77-50.59-28.19-19.69-7.78-38.62-18.47-53.65-33.56-10.56-10.66-18.72-24.43-20.01-39.62-1.69-19.54 5.37-39.09 17.3-54.42-24.77 12.57-45.47 33.01-58.25 57.68zm117.09-23.83c9.38-2.56 19.13 6.17 19.58 15.44-.32 8.23-7.8 15.72-16.03 16.04-7.86-.39-14.86-7.17-15.91-14.9-.5-7.53 5.48-14.31 12.36-16.58zm0 144.04c9.37-2.67 19.09 6.14 19.58 15.37-.36 8.25-7.8 15.58-15.99 16.14-8.17-.57-15.63-7.79-16.01-16.04.26-7.1 5.8-13.35 12.42-15.47z"/></svg>
