<svg width="512pt" height="512pt" viewBox="0 0 512 512" xmlns="http://www.w3.org/2000/svg"><g fill="#7b16ff"><path d="M146.21 85.25c5.65-6.56 14.2-10.31 22.82-10.4 12.85-.2 25.03 5.05 35.98 11.32 24.84 14.73 45.33 35.59 64.02 57.34 8.05-5.81 17.97-9.07 27.93-8.65 14.34.31 28.17 8.24 35.89 20.3 4.65 7.11 7.14 15.57 7.16 24.06 6.99 4.44 13.48 9.81 18.41 16.51 6.75-22.01 12.39-44.65 12.76-67.79-.02-12.08-1.16-24.91-7.79-35.35-4.33-6.95-12.25-11.32-20.43-11.36-11.86-.2-23.01 4.86-33.09 10.65-10.16 6.02-19.6 13.21-28.38 21.08 2.12 5.44-1.53 12.23-7.44 12.89-6.3 1.23-12.25-5.34-10.48-11.5 1.25-5.83 8.26-8.76 13.49-6.19 12.8-11.02 26.44-21.45 42.08-28.13 8.46-3.55 17.69-6.01 26.93-5.02 7.29.78 14.32 4.17 19.25 9.64 5.42 5.87 8.47 13.52 10.2 21.22 2.83 13.12 2.36 26.7.82 39.95-2.29 18.37-6.82 36.4-12.61 53.95-.31 1.18-1.14 2.54-.2 3.68 8.39 14.91 10.39 33.24 5.5 49.62-3.14 10.92-9.55 20.59-17.42 28.67 4.05 10.8 4.59 22.83 1.84 34.01 17.24-3.55 34.34-8.03 50.73-14.5 12.76-5.11 25.31-11.3 35.81-20.29 6.28-5.51 12.01-12.43 13.58-20.86 1.4-7.16-1.17-14.52-5.39-20.28-5.78-7.9-13.86-13.75-22.21-18.67-11.36-6.56-23.59-11.49-36.07-15.49-3.11 2.48-7.55 3.69-11.21 1.63-5.01-2.4-6.64-9.5-3.23-13.86 2.97-4.32 9.7-5.11 13.6-1.62 2.41 1.9 3.29 4.99 3.47 7.93 16.74 5.58 33.35 12.43 47.55 23.1 8.71 6.66 16.85 15.26 19.48 26.22 2.31 9.17-.41 18.99-5.91 26.5-8.06 11.14-19.98 18.73-32.05 24.91-22.04 11.02-46.06 17.33-70.09 22.24-5.67 13.57-15.98 25.22-29.29 31.69-3.22 6.91-8.12 13.13-14.67 17.15-9.93 6.27-22.9 7.35-33.72 2.8-7.45-3.03-13.69-8.65-17.84-15.5-5.04 8.41-13.37 14.83-22.93 17.18-11.24 2.94-23.76.05-32.62-7.44-4.71-3.75-8.02-8.87-10.66-14.19-13.14-6.5-23.83-17.88-29.05-31.63-16.68-3.44-33.3-7.43-49.31-13.31-14.62-5.4-29.06-11.98-41.34-21.73-7.78-6.28-14.86-14.24-17.51-24.11-2.39-8.65-.34-18.08 4.57-25.47 6.98-10.67 17.73-18.17 28.71-24.27 20.64-11.13 43.34-17.82 66.15-22.8 2.78-.78 6.16-.52 8.22-2.86 3.55-3.47 7.61-6.34 11.76-9.03-.1-13.27 6.28-26.31 16.64-34.55 9.26-7.54 21.63-11.01 33.46-9.46 14.29 1.69 27.29 10.93 33.89 23.67 2.2-4.08 4.98-7.83 8.21-11.15-12.06-14.15-24.94-27.67-39.26-39.56-11.82-9.69-24.58-18.69-39.06-23.91-8.88-3.1-19.21-4.69-27.91-.22-8.59 4.39-13.09 13.77-15.11 22.79-3.59 16.57-1.9 33.75.99 50.29 7.51.59 13.52 8.28 11.61 15.72-1.45 7.5-10.32 12.23-17.35 9.15-7.05-2.61-10.29-11.88-6.36-18.3 1.27-2.42 3.53-4.07 5.79-5.49-2.64-15.01-4.15-30.4-2.21-45.59 1.33-9.78 4.28-19.78 10.9-27.33m124.97 28.75c-1.3.79-1.95 2.6-1.15 3.96.94 2.2 4.48 2.16 5.37-.08 1.25-2.39-1.93-5.35-4.22-3.88m-65.76 32.61c-14.3 4.64-24.42 19.41-23.44 34.44.12 4.69 1.63 9.16 3.34 13.48 1.25 3.99-3.81 7.73-7.3 5.45-3.12-2.17-3.48-6.43-4.72-9.73-10.35 7.36-18.09 18.36-21.22 30.69-3.61 13.55-1.65 28.47 5.35 40.62 7.62 13.48 21.25 23.5 36.5 26.36 2.21.44 4.95.69 6.08 2.99 2.08 3.29-1.03 8.13-4.91 7.41-9.44-1.31-18.49-4.95-26.44-10.18-4.26 14.83-1.12 31.58 8.57 43.63 8.34 10.67 21.32 17.42 34.81 18.34 3.83.16 5.86 5.4 3.2 8.15-2.68 3.04-7.08 1.21-10.49.97 5.7 5.23 13.37 8.54 21.2 7.87 10.74-.62 20.52-8.42 23.76-18.64 1.76-4.96 1.22-10.29 1.28-15.45l.01-153.01c.08-7.8-2.43-15.63-7.26-21.77-8.61-11.5-24.77-16.41-38.32-11.62m61.54 13.36c-5.19 7.22-6.42 16.34-5.96 25.03.01 52 0 104.01.03 156.01.05 12.68 10.43 24.2 22.94 25.89 8.47 1.41 17.12-1.9 23.3-7.68-2.69.3-5.42 1.05-8.13.59-3.41-.81-4.81-5.49-2.41-8.05 1.53-1.97 4.25-1.68 6.45-2.05 15.2-1.87 28.97-11.57 36.28-24.98-14.34 2.42-28.82 3.94-43.3 5.09-1.4 3.36-4.36 6.22-8.13 6.5-5.33.74-10.52-3.99-10.33-9.35-.18-5.32 4.97-9.98 10.24-9.29 3.52.2 6.29 2.73 7.95 5.67 15.61-1.16 31.21-2.87 46.62-5.67 3.29-9.47 3.46-19.85.83-29.49-8.2 5.31-17.55 9.27-27.34 10.19-5.54.04-6.31-8.88-.88-9.78 12.52-1.93 24.35-8.17 32.73-17.71 10.59-11.73 15.61-28.23 13.26-43.87-1.91-14.71-10.44-28.15-22.43-36.75-1.12 3.14-1.63 6.84-4.08 9.28-3.23 2.83-8.83-.28-8.07-4.55 1.19-3.59 2.78-7.1 3.17-10.92 2.35-14.97-6.58-30.67-20.55-36.46-14.66-6.68-33.4-1.12-42.19 12.35m-126.75 4.14c-4.03 1.65-5.1 7.57-1.84 10.5 3.15 3.39 9.44 1.8 10.66-2.64 1.96-5.05-4.02-10.34-8.82-7.86m241.13 32.39c-1.99 1.2-1.58 4.72.73 5.29 2.15.95 4.65-1.58 3.79-3.75-.56-1.82-2.96-2.62-4.52-1.54m-229.36 1.12c-19.92 4.5-39.71 10.24-58.08 19.29-9.85 4.97-19.48 10.86-27 19.06-5.22 5.7-9.29 13.1-8.91 21.05.33 7.98 4.91 15.06 10.36 20.59 8.06 8.09 18.07 13.91 28.3 18.82 19.63 9.23 40.69 14.97 61.88 19.35-2.83-11.26-2.12-23.32 1.83-34.22-9.7-9.55-16.73-21.94-19.03-35.42-3.09-16.76.95-34.55 10.65-48.52m134.14 126.56c-3.66 1.03-1.78 7.03 1.82 5.69 3.76-.93 1.85-7.1-1.82-5.69zM286.39 165.55c1.59-1.35 3.88-.62 5.74-.41 8.61 1.56 15.39 9.96 14.85 18.74-.28 2.15-3.03 3.42-4.84 2.17-1.74-1-1.37-3.24-1.77-4.9-.76-5.68-6.16-9.97-11.8-10.01-2.9.22-4.52-3.8-2.18-5.59zM211.49 172.4c1.26-1.5 3.77-1.45 4.95.13 6.01 6.71 8.73 15.75 9.72 24.55.68 7.76.18 16.16-4.03 22.94-1.14 2.34-4.8 2.33-5.85-.05-1.07-2.75 1.81-4.88 2.3-7.46 2.95-10.61 1.18-22.41-4.15-31.98-1.25-2.57-5.33-5.02-2.94-8.13zM186.13 219.96c2.13-1.65 5.51.44 5.01 3.08-.61 1.65-1.53 3.16-2.23 4.78-4.37 10.09-.87 22.92 8.14 29.27 1.31 1.1 3.49 1.92 3.41 3.95.13 2-1.98 3.68-3.9 3.22-15.58-7.78-21.06-30.43-10.43-44.3zM294.45 223.58c2.23-1.25 5.21.82 4.7 3.36-.21 2.02-2.38 2.54-3.9 3.28-7.33 3.07-12.14 10.86-12.05 18.76.53 2.58-2.44 4.83-4.73 3.45-2-1.02-1.71-3.51-1.6-5.37.53-10.4 7.81-19.98 17.58-23.48zM331.3 223.38c1.9-1.53 4.61-.2 5.25 1.95 7.19 13.53 1.22 32.08-12.62 38.7-1.9.77-4.38-.96-4.18-3.02-.25-2.07 2.02-2.9 3.37-3.92 9.12-5.73 12.74-18.55 7.95-28.21-.95-1.72-1.71-4.15.23-5.5zM224.23 286.24c1.47-.84 3.52-.31 4.29 1.23 6.96 12.25 3.94 29.07-6.89 38.1-1.86 1.69-5.25-.07-5.03-2.52-.31-1.54 1.28-2.38 2.06-3.44 7.13-6.87 9.29-18.3 5.11-27.28-1.06-1.92-2.03-4.81.46-6.09zM356.07 342.14c-1.01-7 4.85-13.92 11.88-14.21 6.83-.67 13.41 5.07 13.7 11.92.5 5.29-2.78 10.26-7.36 12.69 2.94 16.43 4.67 33.37 1.97 49.96-1.83 10.54-5.96 21.42-14.64 28.2-8.27 6.61-19.69 7.68-29.73 5.33-20.96-4.96-38.62-18.34-54.65-32.14-6.61 5.37-17.7 2.36-20.24-5.88-3.31-8.24 4.18-18.06 13-17.06 8.54.27 14.37 10 11.13 17.8 11.6 10.15 24.01 19.66 38.05 26.19 8.6 3.88 18.13 6.86 27.66 5.39 6.32-.96 12.11-4.61 15.79-9.83 5.11-7.14 7.1-15.97 8.02-24.56 1.4-14.11-.2-28.31-2.67-42.2-5.98-.65-11.44-5.45-11.91-11.6m10.44-7.43c-4.7 1.58-5.6 8.68-1.35 11.31 3.86 2.93 10.13-.13 10.12-5.01.39-4.47-4.66-8.1-8.77-6.3m-100.33 53.3c-4.4 2.01-4.67 8.87-.46 11.24 3.95 2.72 9.9-.52 9.86-5.29.35-4.7-5.29-8.31-9.4-5.95zM136.14 336.17c3.73-5.28 12.68-4.66 15.61 1.11 3.4 5.52-.63 13.14-6.91 13.99-2.92 14.04-4.67 28.45-3.73 42.79.73 9.24 2.67 18.8 8.2 26.45 4.11 5.71 10.71 9.59 17.77 10.1 10.22.86 20.17-2.82 29.17-7.32 15.37-7.88 28.8-18.97 41.38-30.68 2.72-2.81 7.23 1.73 4.48 4.45-12.93 12.39-27.09 23.77-43.06 32.01-10.5 5.26-22.29 9.3-34.18 7.71-8.84-1.12-16.89-6.44-21.74-13.87-5.45-8.26-7.61-18.22-8.38-27.96-1.15-15.08.85-30.19 3.71-44.98-4.28-3.09-5.77-9.56-2.32-13.8m6.14 3.07c-1.99.77-2.3 3.84-.51 5.02 1.47 1.27 4.08.5 4.61-1.38 1.02-2.33-1.9-4.97-4.1-3.64z"/></g></svg>
