<svg xmlns="http://www.w3.org/2000/svg" style="isolation:isolate" viewBox="0 0 320.002 549.472" width="320.002" height="549.472"><defs><clipPath id="a"><path d="M0 0h320.002v549.472h-320.002z"/></clipPath></defs><g clip-path="url(#a)" fill="#7b16ff"><path d="M3.092.534c3.786-.827 7.72-.36 11.56-.48 96.88.04 193.773.013 290.653.013 3.827.093 7.747-.427 11.52.467 3.387 1.306 4.16 6.173 1.64 8.666-1.667 1.72-4.24 1.44-6.4 1.56-99.147-.013-198.28-.013-297.427 0-3.84-.093-7.76.427-11.52-.48-4.146-1.506-4.16-8.213-.026-9.746zM24.038 18.747c-.253-3.56 3.28-5.76 6.52-5.347 85.827.014 171.667 0 257.507 0 2.16.12 4.72-.173 6.413 1.507 1.707 1.653 1.36 4.253 1.507 6.413-.053 33.814.093 67.627-.08 101.44-.773 36.334-9.147 73.8-31.08 103.467-17.307 23.373-42.933 40.133-70.827 48.053-.293 1.627 2.014 1.214 2.934 1.854 29.346 8.653 55.506 27.826 72.16 53.533 19.56 29.72 26.6 65.947 26.866 101.067.027 33.346.067 66.706-.013 100.053.48 3.64-3.307 5.92-6.56 5.307-86.28-.04-172.56.04-258.827-.027-3.24.427-6.773-1.773-6.533-5.32-.147-32.44-.027-64.893-.053-97.333-.08-34.76 6.293-70.614 24.813-100.534 16.36-26.933 42.987-47.28 73.107-56.4 1.64-.506 3.133-1.386 4.786-1.88-29.933-8.546-57.506-26.906-74.826-53.013-20.107-29.667-27.414-66.147-27.854-101.493-.04-33.787-.106-67.574.04-101.347zm10.6 5.347c.054 32.88-.066 65.773.067 98.666.667 33.867 8.08 68.92 28.56 96.587 1.093 2.293 3.813 2 5.947 2.08 58.253-.04 116.506-.04 174.746.013 3.814-.133 7.747.4 11.467-.586 21.493-27.747 29.067-63.587 29.827-98.04.066-32.894.093-65.8-.014-98.707-83.533-.053-167.066 0-250.6-.013zm39.8 208.12c17.92 18.56 42.214 30.186 67.374 35.093 8.186 1.467 16.56 2.693 24.893 1.707 29.293-3.214 58.107-15.547 78.813-36.827-57.026-.147-114.053-.187-171.08.027zm49.654 54.613c-28.947 9.32-54.494 29.44-69.294 56.133-16.96 30.187-20.88 65.694-20.133 99.774 24.013 0 48.04.013 72.067 0 11.373.24 22.373-5.694 29.146-14.694 6.68-9.293 7.814-21.48 14.88-30.533 3.454-4.467 9.827-7.96 15.28-4.8 9.467 5.16 11.56 16.613 15.627 25.667 4.76 14.226 19.187 24.733 34.253 24.36 23.12.026 46.254-.014 69.374 0 .293-20.467-.707-41.107-5.48-61.08-5.734-25.214-17.827-49.454-36.947-67.16-20.987-19.64-48.973-31.654-77.573-33.907-.147 6.427.333 12.893-.2 19.307-.627 4.893-8.32 5.666-9.987 1.053-1.173-6.813-.067-13.813-.64-20.693-10.307 1.16-20.52 3.32-30.373 6.573zm35.2 116.347c-3.614 5.386-5.28 11.786-7.867 17.68-6.44 19.586-26.907 33.533-47.453 32.586-22.214-.026-44.427-.04-66.64 0-.054 23.987 0 47.974-.027 71.96 82.667.014 165.333 0 247.987 0-.027-23.973.08-47.946-.04-71.92-22.2-.133-44.4-.013-66.6-.053-16.68.973-32.894-8.333-42.294-21.8-5.36-8.6-7.506-18.76-12.426-27.573-.947-1.787-3.214-2.72-4.64-.88zM59.158 37.814c3.334-1.574 7.707 1.133 7.387 4.933.173 18.653.173 37.333 0 56 .36 4.2-4.973 6.853-8.253 4.427-2.454-1.427-2.32-4.547-2.374-6.987.094-17.4.014-34.8.04-52.2-.093-2.413.587-5.347 3.2-6.173zM59.158 117.814c3.334-1.56 7.707 1.133 7.387 4.933.093 5.16.547 10.427-.36 15.533-1.587 4.627-9.493 3.894-9.987-1.04-.44-4.813-.373-9.68-.16-14.506-.04-2.08 1.054-4.24 3.12-4.92zM117.772 240.534c10.44-1.094 21.053-.254 31.546-.374 6.214-.666 7.227 9.654 1.147 10.36-10.533.48-21.133.334-31.667.014-5-.44-5.6-8.4-1.026-10zM157.838 333.827c3.334-1.56 7.76 1.053 7.374 4.907.053 11.053.413 22.133-.134 33.173-.573 5.467-9.666 5.453-10.24 0-.506-9.72-.026-19.48-.266-29.213.066-3.134-.387-7.547 3.266-8.867zM64.425 472.534c11.347-1.107 22.84-.134 34.24-.48 3.227.293 7.653-.92 9.747 2.32 2.4 3.293-.227 8.626-4.44 8.28-12.44.24-24.894.106-37.334.04-5.613.48-7.373-8.254-2.213-10.16zM205.758 472.534c14.894-1.12 29.947-.12 44.907-.48 3.24.266 7.613-.88 9.747 2.333 2.413 3.293-.2 8.68-4.44 8.293-16 .107-32.014.16-48.014-.013-5.68.613-7.333-8.267-2.2-10.133zM128.425 496.534c14.893-1.12 29.947-.12 44.907-.48 3.24.266 7.613-.88 9.746 2.333 2.414 3.293-.186 8.667-4.426 8.293-16 .12-32.027.16-48.027-.013-5.68.613-7.333-8.267-2.2-10.133zM3.092 539.2c5.106-.946 10.36-.36 15.533-.466 98.253.026 196.507-.014 294.76.013 2.827-.267 6.027 1.147 6.48 4.24.907 3.773-2.84 7.013-6.467 6.413-102.706 0-205.413.134-308.106-.066-5.64.586-7.334-8.267-2.2-10.134z"/></g></svg>