<svg width="512pt" height="512pt" viewBox="0 0 512 512" xmlns="http://www.w3.org/2000/svg"><g fill="#010101"><path d="M227.29 95.24c2.61-1.6 5.73-2.03 8.75-1.96 12.97.06 25.94-.05 38.92.05 7.99.01 14.6 7.86 13.52 15.72-.64 7.47-7.91 13.12-15.29 12.61.04 1.84.03 3.68.06 5.52 22.68 2.68 44.63 10.83 63.67 23.42 3.62-3.83 7.64-7.84 13.09-8.69 9.53-2.21 19.95 4.49 21.93 14.05 1.82 7.1-1.2 14.62-6.63 19.31 22.16 24.88 35.53 57.48 36.8 90.8 1.18 25.23-4.34 50.75-15.96 73.17-12.61 24.66-32.41 45.58-56.33 59.53-23.97 14.12-52.07 20.98-79.84 19.79-26.9-.98-53.41-9.78-75.7-24.84-27.25-18.29-48.03-46.02-57.79-77.37-9.25-29.14-8.96-61.21.76-90.2 6.25-18.67 16.34-36.02 29.36-50.78-2.74-2.73-5.31-5.82-6.34-9.63-2.2-6.92.19-14.95 5.71-19.62 5.29-4.64 13.28-5.88 19.7-2.96 3.78 1.54 6.57 4.63 9.36 7.49 18.18-12.07 39.05-20 60.65-23.07l-.01-5.93c-6.28.26-12.7-3.54-14.58-9.7-2.18-6.12.53-13.51 6.19-16.71m5.12 8.39c-2.49 1.25-2.97 4.97-.94 6.85 1.39 1.57 3.65 1.19 5.52 1.29 12.65-.14 25.3.09 37.95-.11 3.1-.13 4.91-4.21 3.03-6.65-1.24-2.05-3.86-1.88-5.94-1.91-11.68.07-23.37-.01-35.06.03-1.51.13-3.16-.2-4.56.5m13.16 17.93c-.02 1.67-.04 3.34-.05 5.02 5.94-.39 11.89-.44 17.84-.2v-4.81c-5.93.03-11.86-.03-17.79-.01m6.54 14.57c-19.15.53-38.2 5.1-55.45 13.45-28.41 13.75-51.78 37.57-64.86 66.3-12.18 26.7-15.33 57.38-9.03 86.03 6.07 28.16 21.58 54.09 43.22 73.05 23.02 20.47 53.24 32.6 84.03 33.73 26.1 1.22 52.53-5.24 75.03-18.54 27.48-16.26 49.24-42.24 59.68-72.48 9.59-27.25 10.16-57.58 1.71-85.2-8.49-28.21-26.64-53.28-50.48-70.54-24.04-17.64-54.07-26.74-83.85-25.8m-102.79 24.89c.06 2.97 2.12 5.25 4.19 7.14 4.22-4.17 8.71-8.08 13.43-11.68-2.24-2.21-4.56-4.9-7.97-5.03-5.28-.65-10.23 4.3-9.65 9.57m195.7-4.65c4.75 3.74 9.27 7.75 13.7 11.85 2.05-2.26 4.23-4.87 3.96-8.13-.03-4.96-4.71-9.26-9.66-8.7-3.39.15-5.72 2.81-8 4.98zM241.56 154.75c25.81-3.18 52.65 2.28 74.97 15.68 25.2 14.97 44.64 39.51 52.99 67.64 6.68 22 6.72 45.93.25 67.98-8.99 31.09-31.54 57.83-60.42 72.35-21.86 11.12-47.25 14.99-71.47 11.24-24.63-3.63-47.93-15.48-65.49-33.11-17.53-17.29-29.48-40.19-33.39-64.52-4.83-28.76 1.29-59.28 17.25-83.74 18.67-29.27 50.77-49.58 85.31-53.52m-1.03 10.05c-31.06 4.24-59.73 22.84-76.38 49.37-13.6 21.1-19.15 47.04-16.07 71.89 2.68 22.03 12.38 43.13 27.37 59.5 16.02 17.78 38.09 30.03 61.71 34.01 26.65 4.7 55.09-.82 77.76-15.7 22.34-14.41 39.29-37.18 46.04-62.94 5.64-20.81 4.92-43.3-2.04-63.7-9.06-26.89-29.22-49.78-54.67-62.28-19.55-9.78-42.11-13.22-63.72-10.15zM255.49 168.64c2.56-.32 5.22 1.74 5.34 4.37.24 3.99-.01 7.99.11 11.99-.09 2.4.41 5.39-1.75 7.09-2.69 2.62-7.89.64-8.04-3.12-.18-5-.07-10-.06-15-.27-2.63 1.75-5.15 4.4-5.33zM204.32 182.41c2.22-1.19 5.22-.33 6.42 1.9 2.63 4.32 5.14 8.73 7.6 13.15 2.01 3.36-1.39 7.91-5.16 7.04-2.58-.31-3.74-2.86-4.91-4.83-1.98-3.63-4.26-7.09-6.11-10.79-1.3-2.27-.15-5.38 2.16-6.47zM303.32 182.36c3.59-1.96 8.07 1.92 6.87 5.73-1.68 3.84-4.16 7.26-6.12 10.96-1.33 2.1-2.4 5.05-5.22 5.43-3.79.96-7.18-3.7-5.2-7.02 1.89-3.65 4.14-7.09 6.1-10.7 1.02-1.57 1.77-3.57 3.57-4.4zM311.31 205.29c4.74-3.71 12.31-2.19 15.52 2.83 2.93 4.05 2.33 10.03-1.03 13.65-14.43 16.44-28.98 32.78-43.33 49.29-.1 2.2-.23 4.41-.4 6.61 15.51 18.25 31.14 36.41 46.66 54.66 3.22 3.94 4.02 10.58-.15 14.16-3.99 3.5-10.17 2.04-13.77-1.3-17.05-15.74-34.12-31.44-51.14-47.2-6.31 1.35-13.1 1.24-18.99-1.63-7.87-3.72-13.7-11.49-14.83-20.16-1.64-10.12 3.43-20.82 12.14-26.16 5.02-3.25 11.11-4.35 17.02-3.99 17.46-13.55 34.83-27.22 52.3-40.76m3.59 9.59c-14.95 11.68-29.91 23.34-44.84 35.05 3.67 2.61 6.84 5.88 9.17 9.75 12.94-14.55 25.74-29.23 38.6-43.85 1.06-.86 1.12-2.1.33-3.18-1.13.68-2.21 1.43-3.26 2.23m-63.49 41.62c-7.77 2.1-13.21 10.42-11.83 18.39 1.13 8.68 9.87 15.34 18.55 14.02 9.24-.99 16.33-10.77 14.06-19.86-1.63-9.15-11.91-15.35-20.78-12.55m21.37 36.48c14.47 13.32 28.89 26.69 43.4 39.96-12.6-15.29-25.78-30.09-38.47-45.31-1.54 1.88-3.19 3.66-4.93 5.35zM168.37 218.51c1.26-.58 2.77-.56 4 .09 3.73 1.88 7.25 4.15 10.92 6.15 1.81 1.1 4.09 2.09 4.65 4.36 1.31 3.76-3.3 7.77-6.8 5.71-4.46-2.41-8.88-4.95-13.23-7.56-3.5-1.74-3.18-7.39.46-8.75zM339.45 218.65c3.4-2.05 8 1.52 7.02 5.32-.69 3.22-4.25 4.18-6.67 5.78-3.63 1.78-6.82 4.63-10.79 5.57-4.53.51-6.97-6.01-3.35-8.65 4.46-2.87 9.17-5.39 13.79-8.02zM156.4 267.64c5.6-.1 11.23-.28 16.81.05 4.31.97 4.83 7.59.74 9.24-3.87.96-7.96.22-11.91.48-2.89-.21-6.57.76-8.7-1.81-2.5-2.68-.67-7.75 3.06-7.96zM339.39 267.64c5.16-.18 10.35-.13 15.52-.08 3.67-.18 6.24 4.43 4.14 7.47-2.14 3.44-6.71 2.08-10.05 2.35-3.84-.31-8.02.84-11.61-.81-3.76-2.16-2.39-8.66 2-8.93zM327.53 309.73c2.46-.82 4.6 1.04 6.64 2.14 3.47 2.2 7.24 3.95 10.63 6.29 2.84 2.12 2.05 7.1-1.28 8.28-2.83 1.26-5.42-.99-7.78-2.23-3.48-2.24-7.33-3.92-10.6-6.45-2.55-2.49-1.01-7.25 2.39-8.03zM180.41 310.41c3.22-2.44 8.37.6 7.65 4.6-.15 2.72-2.82 3.96-4.86 5.17-3.73 2.02-7.25 4.41-11.07 6.27-3.37 1.58-7.52-1.84-6.65-5.47.37-2.51 2.86-3.58 4.77-4.74 3.43-1.87 6.73-3.97 10.16-5.83zM212.38 340.58c3.9-1.57 8.15 3.09 5.97 6.79-2.61 4.67-5.18 9.39-8.09 13.88-2.9 4.03-9.96.51-8.54-4.25 1.82-4.08 4.43-7.75 6.5-11.7 1.12-1.75 1.98-4.07 4.16-4.72zM296.45 340.57c2.14-.8 4.7.14 5.76 2.19 2.59 4.43 5.3 8.8 7.66 13.37 1.73 3.18-1.34 7.36-4.88 6.87-2.71-.13-4.08-2.71-5.23-4.79-1.94-3.66-4.21-7.15-6.14-10.81-1.44-2.52.11-6 2.83-6.83zM253.37 352.33c2.83-1.99 7.29.13 7.45 3.6.17 5.33.16 10.68 0 16.02-.2 3.72-5.26 5.7-7.97 3.16-2.19-1.66-1.75-4.65-1.8-7.05.11-4.02-.12-8.05.1-12.07.04-1.5.98-2.86 2.22-3.66z"/></g></svg>