<svg xmlns="http://www.w3.org/2000/svg" style="isolation:isolate" viewBox="0 0 282.141 373.852"><defs><clipPath id="a"><path d="M0 0h282.141v373.852h-282.141z"/></clipPath></defs><g clip-path="url(#a)" fill="#7b16ff"><path d="M68.515 40.249c-.147-20.92 18.266-39.813 39.2-40.133 22.226-.187 44.453-.107 66.68-.04 20.04.386 37.84 17.573 39.106 37.546 2.147 20.334-13.426 40.32-33.52 43.654-11.266 1.533-22.72 0-34.04.906.147 3.254.174 6.494.134 9.747 28.266.827 56.066 10.707 78.76 27.52l5.186-6.307c-5.72-4.706-11.613-9.2-17.28-13.946-2.24-1.88-2.013-5.454-.08-7.454 4.934-6.186 9.774-12.48 14.84-18.56 1.894-2.333 5.587-2.186 7.654-.133 13.493 10.853 27.026 21.667 40.493 32.56 2.467 1.627 3.28 5.36 1.28 7.667-4.893 6.28-9.853 12.533-14.893 18.72-1.547 2.16-4.894 2.853-6.96 1.013-5.68-4.427-11.24-9.013-16.854-13.547-1.746 2.107-3.48 4.214-5.213 6.334 23.627 20.48 40.507 48.786 46.427 79.56 6.773 33.533.706 69.493-16.8 98.906-18.787 32.107-50.747 56.254-86.867 65.254-28.107 7.186-58.44 5.413-85.48-5.12-35-13.387-64.093-41.387-78.8-75.854-10.76-24.666-13.987-52.453-9.573-78.973 5.293-32.467 22.6-62.693 47.666-83.96-1.64-1.947-3.28-3.907-4.906-5.88-5.854 4.347-11.254 9.267-17.12 13.6-2.027 1.547-5.24 1.2-6.707-.96-4.893-6.173-9.853-12.32-14.72-18.52-2.133-2.227-1.867-6.133.8-7.8 13.533-10.947 27.133-21.8 40.68-32.72 2.093-2.133 6.013-2.52 7.84.173 4.973 6.227 10 12.414 14.867 18.734 1.946 2.04 1.92 5.653-.454 7.346-5.573 4.76-11.546 9.014-17.04 13.867 1.614 1.827 3.174 3.693 4.694 5.613 22.933-16.213 50.346-26.24 78.533-27.12.067-3.373.067-6.746-.16-10.106-10.267.093-20.547.36-30.787-.2-20.426-1.72-37.44-20.854-36.586-41.387zm10.226 1.227c.08 15.026 12.76 28.666 27.747 29.8 9.76.453 19.56.12 29.333.16 0-4.307 0-8.614.014-12.907 3.426-.027 6.853-.04 10.28-.04-.054 4.32-.054 8.653-.04 12.987 9.44-.067 18.893.093 28.333-.067 14.467-.547 27.293-12.773 28.787-27.133 2.4-16.867-11.76-33.694-28.8-34.174-22.2-.106-44.4-.12-66.6 0-16.027.48-29.827 15.347-29.054 31.374zm-61.68 69.373c2.8 3.613 5.734 7.133 8.427 10.84 11.493-8.72 22.507-18.067 33.827-27.013-2.867-3.654-5.654-7.387-8.707-10.894-11.12 9.08-22.4 17.987-33.547 27.067zm215.147-27.053c-2.813 3.653-5.707 7.253-8.56 10.88 11.187 9.026 22.44 17.973 33.587 27.053 3.08-3.507 5.84-7.267 8.76-10.907-11.294-8.973-22.427-18.146-33.787-27.026zm-98.68 18.4c-36.013 1.84-70.707 19.64-93.493 47.546-21.907 26.36-32.667 61.6-29.174 95.72 2.52 27.307 14.12 53.654 32.387 74.094 18.2 20.6 43.04 35.28 69.933 41.04 29.64 6.546 61.587 2.373 88.4-11.88 28.92-14.974 51.68-41.2 62.654-71.827 10.56-29.32 10.16-62.453-1.24-91.467-9.814-25.28-27.734-47.346-50.454-62.133-23.146-15.307-51.32-22.773-79.013-21.093zM136.035 129.342c3.413-.066 6.84-.093 10.266-.053 0 6.427.014 12.853-.013 19.28-3.413.013-6.84.04-10.253.067.04-6.427.04-12.854 0-19.294zM85.261 145.462c2.947-1.733 5.92-3.44 8.894-5.12 3.186 5.627 6.493 11.187 9.693 16.814-2.947 1.613-5.84 3.32-8.653 5.146-3.547-5.48-6.56-11.266-9.934-16.84zM187.941 140.356c3.014 1.626 6.014 3.28 8.974 5.026-3.214 5.587-6.467 11.147-9.667 16.734-2.96-1.654-5.92-3.307-8.88-4.974 3.12-5.64 6.48-11.133 9.573-16.786zM148.928 217.369c18.92-18.787 37.64-37.773 56.627-56.493 2.346 2.466 4.733 4.906 7.16 7.306-18.76 18.774-37.507 37.534-56.294 56.28 3.067 6.44 1.907 14.72-3.8 19.32-6.333 5.88-17.186 4.68-22.493-1.986-5.76-6.334-4.413-17.2 2.387-22.24 4.56-3.774 10.986-4.054 16.413-2.187zm-8.947 9.693c-3.693 1.6-4.053 7.347-.546 9.387 3.24 2.44 8.293-.213 8.466-4.16.467-4-4.413-7.413-7.92-5.227zM54.581 176.049c5.587 3.2 11.107 6.52 16.774 9.6-1.614 3.053-3.36 6.027-5.12 9-5.587-3.253-11.16-6.507-16.774-9.72 1.707-2.96 3.414-5.92 5.12-8.88zM210.848 185.822c5.56-3.24 11.133-6.453 16.707-9.666 1.64 2.893 3.333 5.773 5.2 8.546-5.334 3.747-11.24 6.56-16.8 9.96-1.72-2.946-3.414-5.893-5.107-8.84zM38.221 226.902c6.467-.013 12.92-.026 19.387 0-.08 3.334-.067 6.667.053 10.014-6.453.453-12.933.106-19.386.2-.067-3.4-.08-6.814-.054-10.214zM224.595 226.902c6.466-.026 12.92-.026 19.4 0-.027 3.4-.08 6.8-.134 10.214-6.466-.054-12.933.2-19.386-.174.106-3.346.133-6.693.12-10.04zM49.608 278.849c5.56-3.227 11.133-6.44 16.707-9.667 1.72 2.934 3.426 5.894 5.08 8.867-5.494 3.253-11.12 6.28-16.52 9.693-1.987-2.826-3.627-5.866-5.267-8.893zM215.848 269.396c5.573 3.333 11.453 6.2 16.747 9.986-1.814 2.774-3.507 5.627-5.134 8.507-5.573-3.24-11.2-6.36-16.72-9.667 1.694-2.946 3.4-5.893 5.107-8.826zM94.888 301.702c2.987 1.64 5.933 3.334 8.867 5.08-3.134 5.587-6.427 11.094-9.48 16.734-3.04-1.627-6.014-3.36-8.987-5.107 3.173-5.587 6.453-11.107 9.6-16.707zM187.101 301.782c3.36 5.494 6.44 11.147 9.707 16.707-2.947 1.76-5.907 3.44-8.893 5.107-3.2-5.574-6.454-11.107-9.6-16.707 2.933-1.693 5.853-3.4 8.786-5.107zM136.035 334.742c.12-6.493-.187-12.973.2-19.453 3.346.12 6.706.16 10.066.133v19.32h-10.266z"/></g></svg>
