<svg width="512pt" height="512pt" viewBox="0 0 512 512" xmlns="http://www.w3.org/2000/svg"><g fill="#7b16ff"><path d="M254.45 41.7c3.85-1.28 7.93 2.3 7.52 6.26.11 14.28 2.06 28.65 6.86 42.14 4.74 13.8 12.27 26.46 20.87 38.18 10.35 14.25 22.18 27.4 31.92 42.11 7.83 11.66 14.24 24.41 17.85 38.02 3.59 13.15 4.62 26.91 3.73 40.48-.94 17.99-8.42 35.49-20.48 48.83-12.37 13.79-29.58 22.82-47.69 26.3-19.37 3.54-39.93 1.83-57.99-6.26-18.25-8.05-33.49-22.9-41.55-41.19-4.48-9.89-6.75-20.72-6.89-31.55-.56-12.78.82-25.66 4.27-37.98 4.2-14.72 11.52-28.38 20.31-40.84 11.68-16.55 25.53-31.5 36.41-48.63 13.08-20 20.37-43.72 20.28-67.65-.28-3.33.89-7.4 4.58-8.22m1.46 48.06c-5.09 15.93-13.15 30.75-22.99 44.23-12.29 17.25-27 32.78-37.68 51.16-9.71 16.16-14.87 34.96-14.74 53.81-.17 11.47 1.23 23.15 5.96 33.7 5.92 13.95 16.98 25.57 30.51 32.37 15.92 8.14 34.47 10.11 52.06 7.88 15.65-1.92 30.96-8.46 42.3-19.55 11.4-11.11 18.29-26.51 19.66-42.31 1.23-13.77.36-27.82-3.5-41.13-3.42-12.21-9.44-23.53-16.53-33.97-10.88-15.91-23.97-30.17-34.83-46.1-8.64-12.3-15.36-25.88-20.22-40.09zM164.45 163.57c2.62-.93 5.9-1.3 7.97.97 3.39 3.04 1.52 9.25-2.92 10.07-36.71 10.28-72.51 27.07-100.14 53.83-18.94 18.28-33.47 42.07-37.07 68.45-3.65 25.08 3.04 51.06 16.91 72.11 17.56 27.06 44.38 46.86 73.09 60.83 51.56 24.66 110.19 32.2 166.78 27.07 42.02-4.07 83.83-15.71 120.1-37.68 25.17-15.37 47.87-36.33 60.89-63.15 10.69-21.83 13.62-47.5 7.21-71.02-6.01-22.93-20-43.09-37.22-59.1-27.43-25.4-62.23-41.49-97.96-51.45-3.96-1-5.64-6.34-3-9.44 1.79-2.46 5.15-2.7 7.81-1.65 40.47 11.42 79.51 31.3 108.76 62.01 15.01 15.93 27.11 35 32.96 56.22 6.16 21.65 5.17 45.2-2.52 66.34-10.55 29.49-32.46 53.61-57.57 71.68-32.95 23.62-71.82 38.01-111.5 45.35-51.06 9.16-104.26 6.85-154.13-7.56-34.34-10.12-67.41-26.1-94.52-49.73-20.12-17.58-36.85-39.92-44.49-65.77-7.71-25.32-5.48-53.33 5.64-77.3 12.83-28.26 35.55-50.95 61.19-67.89 22.58-14.95 47.72-25.81 73.73-33.19zM206.46 198.64c4.05-2 9.26 1.99 8.26 6.42-2.36 11.82-4.27 23.84-3.88 35.94.49 12.58 6.39 25.09 16.57 32.69 4.77 3.83 10.54 6.07 16.37 7.7 3.5.83 5.36 5.11 3.77 8.29-1.18 2.79-4.58 4.02-7.39 3.11-23.47-5.88-40.81-28.85-41.39-52.83-.14-12.04 1.5-24.03 3.93-35.8.33-2.29 1.49-4.63 3.76-5.52zM126.31 234.54c3.72-1.5 8.24 1.59 8.12 5.61.11 3.27-2.88 5.25-4.81 7.45-11.79 12.26-20.6 28.12-21.66 45.34-1.7 19.88 6.67 39.53 19.9 54.08 18.93 20.97 45.37 33.63 72.34 40.74 34.51 8.77 71.13 9.17 105.87 1.39 28.55-6.65 56.79-19.27 77.04-41.02 13.09-13.97 21.77-32.73 21.08-52.11-.32-18.56-9.52-35.95-22.35-48.97-1.83-2.04-4.66-3.99-4.31-7.08.06-3.3 3.2-6.1 6.48-5.77 2.55.05 4.21 2.24 5.88 3.86 13.39 13.83 23.34 31.55 25.77 50.82 2.26 17.66-2.41 35.84-11.9 50.79-11.06 17.66-27.52 31.35-45.47 41.61-25.47 14.3-54.24 22.16-83.27 24.62-34.49 2.76-69.79-1.92-101.85-15.15-24.54-10.25-47.75-25.77-62.95-47.98-9.75-14.18-15.35-31.44-14.36-48.73 1.06-20.46 10.99-39.67 24.78-54.5 1.77-1.78 3.36-3.89 5.67-5z"/></g></svg>
