<svg xmlns="http://www.w3.org/2000/svg" style="isolation:isolate" viewBox="0 0 682.667 529.56" width="682.667" height="529.56"><defs><clipPath id="a"><path d="M0 0h682.667v529.56h-682.667z"/></clipPath></defs><g clip-path="url(#a)"><path d="M270.747 110.08c13.093-42.107 37.373-80.933 70.586-110.08 31.067 27.32 54.36 63.107 67.907 102.12 12.067 34.533 16.547 71.613 13.533 108.04.12 1.773-.293 3.44-1.026 5.04 1.093-1.333 1.506-3.213 3.013-4.187 24.507-19.04 51.733-34.48 80.333-46.466 33.84-13.947 70.067-23.68 106.88-23.294.707 33.147-8.666 66.027-24.453 95.014-14.507 26.68-34.32 50.333-57.307 70.106-9.626 8.56-20.093 16.04-30.92 23-16.6 11.347-34.626 20.88-53.613 27.574-11.693 5.08-23.88 9.373-36.507 11.306-7.066 2.414-14.466 4.747-22 4.347l-.093-.547c7.48-1.866 14.987-3.6 22.453-5.546 12.107-4.334 23.947-9.427 35.347-15.414 11.027-5.373 22.04-11.28 31.013-19.76 9.907-7.306 18.707-15.933 27.094-24.893 7.44-9.187 15.8-17.853 20.773-28.747 11.093-20.08 18.853-42.973 17.32-66.173-5.707-1.093-11.373 1.053-17.08 1.173-18.293.68-35.707 6.907-52.973 12.414-13.267 5.946-26.334 12.4-38.76 19.946-3.374 2.387-6.854 4.6-10.454 6.6-7.293-29.826-28.613-54.253-53.586-71.146-7.907-5.734-16.507-10.374-25.04-15.054-1.48-1.04-3.2-.013-4.574.64-19.08 9.667-36.826 22.24-51.426 37.907-12.147 13.547-22.014 29.653-26.134 47.507-3.853-3.414-8.973-4.84-12.986-8.04-4.84-3.987-11.027-5.654-16.12-9.254-8.64-3.933-17.214-8.026-26.08-11.426-6.854-2.04-13.68-4.147-20.534-6.16-7.506-1.614-15.146-2.6-22.653-4.054-7.093.494-14.04-1.8-21.147-.906-1.4 25.786 7.787 51.2 21.507 72.733 2.827 6.893 8.707 11.72 12.867 17.76 3.346 5.04 8.506 8.453 12.253 13.173 4.867 5.88 11.72 9.587 16.84 15.214 5.2 4.16 11.173 7.293 16.28 11.613 7.72 3.12 13.8 9.333 21.827 11.68 5.573 2.253 10.546 5.893 16.386 7.533 5.28 1.56 10.28 3.894 15.347 6 6.667 1.227 13.253 2.867 19.787 4.667-4.147 1.533-8.574-.653-12.734-1.187-7.6-2.826-15.8-3.213-23.426-5.986-7.294-3.227-15.32-4.374-22.4-8.2-16.6-5.96-32.187-14.414-47.347-23.334-5.573-4.893-12.493-7.773-18.28-12.36-5.373-5.626-12.533-8.96-17.973-14.56-9.44-8.146-18.334-16.933-26.574-26.293-33.506-38.04-56.373-87.573-55.12-138.947 32.107-.16 63.907 6.8 93.947 17.854 33.427 12.4 65.067 29.826 93.08 51.92 1.52 1.04 2.04 2.946 3.173 4.346-.8-1.6-1.28-3.293-1.12-5.106-2.773-33.654.827-67.854 10.894-100.107z" fill="#e1caff"/><g fill="#984aff"><path d="M338.613 166.093c1.374-.653 3.094-1.68 4.574-.64 8.533 4.68 17.133 9.32 25.04 15.054 24.973 16.893 46.293 41.32 53.586 71.146.827 9.227 3.72 18.56 1.267 27.774-1.493 19.76-10.853 38.026-23.4 53.04-4.533 4.413-7.72 10.093-13.227 13.48-6.226 6.333-13.36 11.64-20.826 16.453-6.44 4.88-13.307 9.32-20.707 12.613-6.24 2.627-11.253-3.08-16.573-5.253-10.467-6.667-21.134-13.2-30.174-21.787-5.853-3.906-9.76-9.773-14.586-14.733-8.44-9.573-14.36-20.973-19.547-32.533-2.52-8.2-4.227-16.654-5.227-25.16-.52-8.08 1.12-16.08 2.24-24.04 4.12-17.854 13.987-33.96 26.134-47.507 14.6-15.667 32.346-28.24 51.426-37.907zM327.547 389.76c4.946-4.107 8.986-9.187 13.84-13.347 5.6 4.654 9.866 10.814 15.946 14.947 21.4 17.44 47.347 28.453 73.947 35.213 4.453 9.36 5.293 20.307 2.747 30.334-3.894 15.453-14.667 28.093-26.68 38.08-19.4 15.813-42.494 26.386-65.987 34.573-12.053-4.093-23.853-8.973-35.2-14.747-18.653-9.64-36.867-21.746-48.987-39.24-8.84-12.586-12.8-29.173-7.813-44.04.813-1.693.773-4.266 2.667-5.106 27.24-6.987 53.72-18.64 75.52-36.667z"/></g><path d="M141.533 211.667c7.107-.894 14.054 1.4 21.147.906 7.507 1.454 15.147 2.44 22.653 4.054 6.854 2.013 13.68 4.12 20.534 6.16 8.866 3.4 17.44 7.493 26.08 11.426 5.093 3.6 11.28 5.267 16.12 9.254 4.013 3.2 9.133 4.626 12.986 8.04-1.12 7.96-2.76 15.96-2.24 24.04 1 8.506 2.707 16.96 5.227 25.16 5.187 11.56 11.107 22.96 19.547 32.533 4.826 4.96 8.733 10.827 14.586 14.733 9.04 8.587 19.707 15.12 30.174 21.787 5.32 2.173 10.333 7.88 16.573 5.253 7.4-3.293 14.267-7.733 20.707-12.613 7.466-4.813 14.6-10.12 20.826-16.453 5.507-3.387 8.694-9.067 13.227-13.48 12.547-15.014 21.907-33.28 23.4-53.04 2.453-9.214-.44-18.547-1.267-27.774 3.6-2 7.08-4.213 10.454-6.6 12.426-7.546 25.493-14 38.76-19.946 17.266-5.507 34.68-11.734 52.973-12.414 5.707-.12 11.373-2.266 17.08-1.173 1.533 23.2-6.227 46.093-17.32 66.173-4.973 10.894-13.333 19.56-20.773 28.747-8.387 8.96-17.187 17.587-27.094 24.893-8.973 8.48-19.986 14.387-31.013 19.76-11.4 5.987-23.24 11.08-35.347 15.414-7.466 1.946-14.973 3.68-22.453 5.546l.093.547c7.534.4 14.934-1.933 22-4.347 12.627-1.933 24.814-6.226 36.507-11.306 18.987-6.694 37.013-16.227 53.613-27.574 10.827-6.96 21.294-14.44 30.92-23 42.254 1.827 85.56 10.24 121.787 33.094 10.773 7.133 21.52 14.946 29.747 24.96l.92-.56v.92c-36.92 39.613-89.147 63.306-142.667 69.106-36.28 3.48-73.227.987-108.72-7.32-26.6-6.76-52.547-17.773-73.947-35.213-6.08-4.133-10.346-10.293-15.946-14.947-4.854 4.16-8.894 9.24-13.84 13.347-21.8 18.027-48.28 29.68-75.52 36.667-27.454 6.706-55.8 9.173-84.014 8.986-61-.426-122.64-23.72-165.426-67.84-.64-.546-1.934-1.613-2.587-2.146v-.574c9.92-10.68 21.413-19.866 33.893-27.386 35.6-21.347 77.56-29.36 118.574-31.054 5.44 5.6 12.6 8.934 17.973 14.56 5.787 4.587 12.707 7.467 18.28 12.36 15.16 8.92 30.747 17.374 47.347 23.334 7.08 3.826 15.106 4.973 22.4 8.2 7.626 2.773 15.826 3.16 23.426 5.986 4.16.534 8.587 2.72 12.734 1.187-6.534-1.8-13.12-3.44-19.787-4.667-5.067-2.106-10.067-4.44-15.347-6-5.84-1.64-10.813-5.28-16.386-7.533-8.027-2.347-14.107-8.56-21.827-11.68-5.107-4.32-11.08-7.453-16.28-11.613-5.12-5.627-11.973-9.334-16.84-15.214-3.747-4.72-8.907-8.133-12.253-13.173-4.16-6.04-10.04-10.867-12.867-17.76-13.72-21.533-22.907-46.947-21.507-72.733z" fill="#b57dff"/></g></svg>
