<svg xmlns="http://www.w3.org/2000/svg" viewBox="0 0 77.8 65.3" enable-background="new 0 0 77.8 65.3"><title>05_collections</title><path d="M74.8 57.1l-.2.2c-6.6 5.8-14.5 8.3-21.5 6.9-6.4-1.3-10.9-5.5-15.3-9.5-4.8-4.4-9.3-8.5-15.9-9.3s-13.8 2.4-19.6 8.5c2.2 3.1 12.8 15.8 30 5.3.5-.2 1.1 0 1.3.5.2.4 0 .9-.3 1.2-5.2 3.1-9.8 4.3-13.9 4.3-12.2.1-19.2-10.7-19.2-10.9-.3-.3-.2-.8.1-1.2 6.2-7 14.2-10.5 21.8-9.7 7.3.8 12.2 5.4 17 9.8 4.4 4 8.5 7.9 14.3 9 6.4 1.3 13.7-1.1 19.8-6.5l.2-.2c.8-.6 1.5-1.3 2.2-2-3-7.1-11.2-8.7-12.8-9-3 1.8-6.2 3.2-9.6 4.1h-.3c-.6.1-1.1-.3-1.1-.9-.1-.6.3-1.1.9-1.1 10.2-2.9 16.5-8.4 18.8-16.4.9-3.4 1.1-7 .5-10.5-13.8-1.4-19.7 6.8-20.5 8.2-.8 5.4-3.2 10.8-7.3 16.1-.4.4-1 .5-1.4.1-.4-.3-.5-.9-.2-1.3 4-5 6.3-10.1 7-15.2.3-2.1.3-4.3 0-6.5-1.3-10-8.6-17-10.9-18.9-11.6 10.7-9.5 22.3-7 28.5.9 1.5 1.7 3.1 2.4 4.7.3.5.1 1.1-.4 1.4-.5.3-1.1.1-1.4-.4-.9-1.4-1.6-2.9-2.3-4.5-3.6-6.1-8.5-9.9-14.5-11.3-3.1-.7-6.3-.8-9.4-.1-2.9 8.8 3.2 16.6 3.2 16.7.3.4.3 1.1-.2 1.4-.4.3-1.1.3-1.4-.2-.3-.4-7-9.1-3.4-19.1.1-.3.4-.5.7-.6 8.5-2 17.5.9 23.3 7.5-1.4-7.1-.5-17 9.7-26 .4-.3.9-.3 1.3 0 .5.3 10.7 8.1 12.4 20.7.2 1.2.2 2.5.2 3.7 3.1-3.2 9.7-8 21.2-6.6.4.1.7.3.8.7 0 .2 3.6 14.8-8.7 24.3 3.5.9 10 3.5 12.6 10.3.3.8-.2 1.5-3 3.8z"/></svg>