<svg xmlns="http://www.w3.org/2000/svg" viewBox="0 0 428.9 306.4" enable-background="new 0 0 428.9 306.4"><style type="text/css">.st0{fill:#293181;} .st1{fill:#FDD361;}</style><path class="st0" d="M189.7 4.4c1.4-2 3.2-4.2 5.9-4.4 2.7-.4 5.1 1.5 6.5 3.6 6.2 8.7 12.2 17.4 18.2 26.2 8.5 12.7 16.9 25.5 24.9 38.6 6.8-4.7 13.2-9.8 19.9-14.5 13.5-9.6 27-19.2 40.9-28.2 3.3-2.4 8.4-.4 9.4 3.5 2.3 7.9 4 16 6 24 3.4 14.4 6.5 28.9 9.3 43.4 9.9-2.2 19.9-4.2 29.9-6.2s20.1-3.8 30.2-5.5c3.5-.9 7.3 1.6 7.7 5.2.2 3.5-.4 6.9-1.2 10.3-1.9 17.6-5.7 35-10 52.1-5.8 21.9-13.1 43.6-23.4 63.9-11.2 22-26.4 43-47.9 56-4.3 2.6-7.7 6.3-11.7 9.2-16.1 11.9-36.6 18.2-56.6 16.4-3.6-.2-7.3-1.5-10.8.2-6 2.5-12.2 4.4-18.5 5.8-22.1 4.6-45.7 2.1-66.3-7.4-2.3-1.2-4.9-1.1-7.3-1.3-18.6-1.2-37.1-7.1-51.9-18.5-3.7-2.7-6.8-6.1-10.7-8.4-13.4-8.1-24.4-19.7-33.4-32.5-18.5-26.4-29.4-57.3-37.5-88.3-5.2-19.1-8.9-38.6-11.1-58.4-1.1-4.3 3-8.8 7.4-7.7 20.3 3.2 40.3 7.4 60.4 11.6 3.9-20.9 8.8-41.7 13.9-62.4.7-2.3 1-4.8 2.3-6.9 2-2.8 6.2-3.4 9-1.3 10.2 6.7 20.3 13.7 30.2 20.7 9.2 6.4 18.2 13.1 27.1 19.8l6-9.4c10.7-16.6 21.7-33 33.2-49.2m-22.9 56.7c-20.8 33-41.3 66.5-55.8 102.8-5.1 13.2-9.6 27.1-8.6 41.4 1.1 19.2 8.1 38.3 20.6 53-7-26.2-1.9-53.9 6.2-79.3 1.2-3.5 1.9-8.4 6.3-9.3 4.6-1.3 9.2 3.7 7.4 8.1-7 20.9-12.4 43.1-9.9 65.3 1.5 15.2 8.6 30.3 21.1 39.4 5.2 4.4 11.9 6.3 18.3 8.1 10.4 2.7 21.3 3.6 32.1 2.6 23.3-2 45.7-13.3 61.3-30.7 15.7-17.4 24.6-40.8 24-64.2-.5-10.4-3.6-20.4-7-30.1-6-16.4-13.8-32.1-22-47.4-14.9-27.4-31.2-53.9-48.7-79.7l.1-.1c-5.3-7.9-10.7-15.8-16.1-23.6-10.1 14.3-19.8 28.9-29.3 43.7m-73.7-23c-4.9 20.4-9.5 40.9-13.5 61.5-5.1 26.7-9.4 53.5-11 80.6-.2 5.2-.7 10.4-.2 15.5-.5 14.1 1.2 28.8 8 41.5 9.5 19.7 27.1 35.5 48.2 41.8-3.6-4-7.6-7.7-10.9-11.9-3.5-4-6.1-8.6-9.3-12.8-11.4-20.5-17.7-44.7-13.2-68.1 3.7-17.7 10.9-34.5 18.6-50.8 9.9-20.8 21.5-40.8 33.3-60.6 1-1.3-.9-2.1-1.6-2.8-7.2-5.3-14.3-10.6-21.6-15.8-8.9-6-17.5-12.6-26.8-18.1m180.1 25.5c-6.9 5.3-14.2 10.2-21 15.7l.5 1.5c16.5 27.9 32.5 56.4 43.3 87.1 4 11.7 7.2 23.9 6.5 36.4-.9 26.2-12.2 51.8-30.7 70.4-3.7 3.9-8 7.1-12 10.8 16.9-1.1 32.8-9.2 44.8-21 13-12.8 23-29.7 24.7-48.1 1.9-17.3.6-34.8-1.1-52.1-3.7-34.4-10.4-68.5-18.1-102.2l-.7-.2.4-.6c-1.1-6.7-3.1-13.2-4.5-19.9-10.9 7.2-21.5 14.8-32.1 22.2m-259.5 31.7c2 14.1 4.6 28.1 7.9 42 7.8 32.2 18.7 64.3 37.7 91.8-5.3-21.5-3.7-43.8-2.1-65.7 2.1-19.4 4.9-38.7 8.3-57.9l-21.3-4.5c-10.1-1.9-20.3-3.9-30.5-5.7m351.7 7l-.3.2c-10.8 1.9-21.5 4.3-32.2 6.6 4.9 28.5 9.4 57.2 9.8 86.2 0 12.4-.3 25-3.8 37.1 9.3-12.1 15.7-26.1 21.6-40 11.3-28 18.5-57.6 23.2-87.4l.9-6c-6.3.9-12.7 2.3-19.2 3.3zm-209.8 21.2c4.6-1.8 9.9 3.3 8 8l-6.7 13.2c-1.4 2.9-2.8 6.7-6.6 7.1-4.5.8-8.6-4.2-6.8-8.4 2-4.9 4.6-9.4 6.9-14.1 1.4-2.3 2.5-5.1 5.2-5.8z"/><path class="st1" d="M220.2 29.9c4.3-6.1 8.5-12.2 12.9-18.2 10.6 14.1 21.4 28.1 32 42.3-6.7 4.7-13.2 9.9-19.9 14.5-8.1-13.1-16.5-25.9-25-38.6zm-96.8 13.4c.9-3.5 1.8-6.9 2.8-10.4 10.3 6.7 20.3 13.7 30.3 20.7l-6 9.4c-9-6.7-18-13.3-27.1-19.7zm197.8 10c8.2-5.8 16.5-11.4 24.8-16.9 4.9 18 9.6 36.1 14.4 54.1-10 1.9-19.9 4-29.9 6.2-2.7-14.6-5.9-29-9.3-43.4zm-133.7 23c8.2-11.7 16.5-23.4 24.7-35.2 17.5 25.7 33.8 52.3 48.7 79.7 8.2 15.4 16 31 22 47.4 3.4 9.7 6.5 19.7 7 30.1.6 23.4-8.3 46.9-24 64.2-15.6 17.4-37.9 28.7-61.3 30.7-10.7 1-21.6.1-32.1-2.6-6.4-1.8-13.1-3.7-18.3-8.1-12.5-9.2-19.6-24.3-21.1-39.4-2.4-22.2 2.9-44.4 9.9-65.3 1.8-4.5-2.9-9.4-7.4-8.1-4.4.9-5.1 5.8-6.3 9.3-8.1 25.4-13.2 53-6.2 79.3-12.4-14.8-19.4-33.8-20.6-53-1-14.3 3.5-28.2 8.6-41.4 14.5-36.3 34.9-69.9 55.7-102.8 7 5 13.8 10.1 20.7 15.2m-31.9 47.2c-2.7.8-3.9 3.5-5.1 5.7-2.4 4.7-5 9.2-6.9 14.1-1.8 4.2 2.3 9.2 6.8 8.4 3.8-.3 5.2-4.1 6.6-7.1l6.7-13.2c1.8-4.6-3.4-9.7-8.1-7.9zm-35.8-67.2c7.3 5.1 14.5 10.5 21.6 15.8.7.7 2.6 1.5 1.6 2.8-11.8 19.8-23.4 39.8-33.3 60.6-7.7 16.3-14.9 33.1-18.6 50.8-4.5 23.4 1.8 47.6 13.2 68.1-15.9-16.8-27.4-37.3-36-58.6-.5-5.2 0-10.4.2-15.5 1.6-27.1 5.9-54 11-80.6 9.1 1.8 18.2 3.7 27.2 5.8 4.5-16.4 8.8-32.8 13.1-49.2zm164.9 23.6c8.2-6.1 16.2-12.4 24.7-18l.7.2c7.7 33.7 14.4 67.8 18.1 102.2 1.8 17.3 3 34.8 1.1 52.1-1.8 18.4-11.7 35.3-24.7 48.1-12 11.8-27.9 19.9-44.8 21 4-3.6 8.3-6.9 12-10.8 18.5-18.6 29.7-44.2 30.7-70.4.7-12.4-2.5-24.7-6.5-36.4-10.8-30.7-26.8-59.1-43.3-87.1l-.5-1.5c6.8-5.5 14.1-10.4 21-15.7 2.8 6.1 7.7 10.8 11.5 16.3zm113.8 22.1c10.1-2 20.2-3.9 30.4-5.5-2.6 22.9-7.1 45.6-13.3 67.7-6.4 22.7-14.8 45.1-26.7 65.5-10.1 17.1-23.3 33.2-40.6 43.3-4.1 2.5-7.2 6.3-11.1 9-16.5 12.5-38.1 18-58.6 14.4-3.4-1.1-6.4 1.2-9.5 2.3-16.1 6.2-33.8 8.3-50.8 5.5 6.3-1.4 12.6-3.3 18.5-5.8 3.4-1.6 7.2-.4 10.8-.2 20.1 1.8 40.5-4.5 56.6-16.4 4.1-2.9 7.5-6.6 11.7-9.2 21.5-13 36.6-34 47.9-56 10.3-20.3 17.6-41.9 23.4-63.9 4.3-17.2 8.1-34.5 10-52.1l1.3 1.4zm-354.3-.9c7.1 1.4 14.2 3 21.3 4.5-3.4 19.2-6.2 38.5-8.3 57.9-5.6-20.5-10.2-41.3-13-62.4zm288.8 8c10.7-2.3 21.4-4.6 32.2-6.6-.3.3-.9.8-1.2 1l1.2 5.4c6.2-1.4 12.4-2.7 18.6-4-4.7 29.8-11.8 59.4-23.2 87.4-5.9 14-12.4 28-21.6 40 3.5-12 3.8-24.6 3.8-37.1-.5-28.9-4.9-57.6-9.8-86.1z"/></svg>