<svg viewBox="0 0 512 512" xmlns="http://www.w3.org/2000/svg"><path fill="#2c4c60" d="M249.55 88.62c2.8-2.48 7.06-4.02 10.42-1.63 29.95 20.22 51.95 50.78 65.08 84.18 22.77-14.65 48.97-24.36 76.05-26.47 3.23-.46 6.55 1.32 7.95 4.27 15.74 32.69 18.83 70.48 12.26 105.91 21.43-.06 42.99 4.29 62.4 13.46 3.05 1.21 5.32 4.32 4.93 7.69-2.03 27.38-12.82 53.7-28.82 75.86-21.26 29.44-51.77 51.98-85.96 64.1-37.75 13.5-80.88 14.31-117.87-2.1-25.92 11.52-55.14 14.6-83.11 10.64-37.99-5.27-73.96-23.29-101.32-50.1-26.36-25.76-45.03-60.36-48.18-97.4-.66-3.59 1.42-7.35 4.82-8.68 19.43-9.16 41.03-13.61 62.48-13.42-6.53-35.42-3.51-73.21 12.26-105.89 1.31-3.07 4.74-4.8 8.01-4.34 27.05 2.14 53.2 11.85 75.95 26.47 12.75-32.56 34.02-62.17 62.65-82.55m-4.36 23.66c-1.79-.58-2.47.03-2.05 1.84-3.07 2.44-5.67 5.41-8.29 8.31l-.32.35c-8.51 9.27-15.84 19.61-22.06 30.55l-.14.25c-7.73 13.77-13.66 28.55-17.73 43.8l-.05.2c-.45 2.19-1.5 4.3-1.42 6.58l-.88.21-.36 1.02.57.75c-.87 5.01-2.51 9.99-2.39 15.11-1.69.32-1.94 1.2-.75 2.65-1.74 12.63-1.47 25.4-1.3 38.13.81 10.07 2.21 20.07 4.11 29.99l-.44.84.48.91.89.05c-.2 2.38.72 4.63 1.29 6.9 6.1 23.25 16.51 45.45 31.06 64.62l.19.24c8.72 11.44 19.01 21.65 30.49 30.32l1.75-1.55c4.57-2.78 8.31-6.69 12.33-10.17 34.57-33.43 53.07-81.52 54.14-129.22 1.35-44.99-12.58-90.9-41.13-126-7.55-8.98-15.67-17.76-25.43-24.33-.43-.38-1.28-1.13-1.7-1.51-3.65 3.02-7.6 5.71-10.86 9.16m-130.79 48.74c-12.14 29.79-14.72 63.42-7.26 94.69 6.93.6 13.77 1.84 20.58 3.21 15.87 2.89 30.9 9.21 45.31 16.31.05-3.05 0-6.11-.51-9.12-.91-5.32-.39-10.74-.52-16.11-.54-21.6 3.38-43.08 9.16-63.83-14.56-9.72-30.62-17.48-47.66-21.66l.28-.38c-6.45-1.09-12.78-3.16-19.38-3.11m263.72 3.07l.36.38c-17.03 4.24-33.11 11.91-47.62 21.71 6.14 22.05 9.88 44.89 9.14 67.82.54 7.14-1.39 14.13-1.09 21.26 14.41-7.18 29.54-13.35 45.41-16.37 6.82-1.26 13.65-2.54 20.56-3.24 2.52-8.65 2.95-17.72 3.9-26.63 1.28-23.08-2.36-46.51-11.23-67.89-6.62-.41-12.95 2.06-19.43 2.96m-319.32 109.94c-6.82 1.12-13.29 3.74-19.7 6.25 2.18 17.52 8.24 34.46 17.05 49.73 26.71 46.24 77.57 77.32 130.82 80.49 7.42.53 15 .85 22.33-.66 3.25-.08 6.45-.86 9.7-1.03l.8.48.96-.45.11-.89h3.17l.82.4.91-.52.06-.89c4.89-.11 9.46-2.31 14.14-3.56-31.63-26.66-53.06-64.3-62.31-104.43 1.18-1.5.89-2.35-.88-2.56l-2.16-1.92-.24-.16c-20.61-12.15-43.66-20.78-67.57-23.03-16.03-1.51-32.27-.78-48.01 2.75m278.61 20.4c-3.14 1.36-3.15 5.09-3.93 7.93-8.17 32.53-24.07 63.41-47.44 87.63-3.89 4.55-8.64 8.22-12.86 12.42-1.73.16-1.89.65-.49 1.47 9.62 2.67 19.36 5.03 29.33 6.05 7.95 1.15 16.07 1.3 24.06.48 35.1-2.31 69.1-16.78 95.71-39.67 26.87-22.9 46.46-55.16 51.12-90.44-6.42-2.53-12.93-5.11-19.75-6.27-16.16-3.74-32.88-4.34-49.35-2.65-23.49 2.5-46.19 10.93-66.4 23.05z"/><path fill="#c3fde5" d="M245.19 112.28c3.26-3.45 7.21-6.14 10.86-9.16.42.38 1.27 1.13 1.7 1.51 2.4 5.67 5.31 11.1 7.91 16.68 8.42 19.36 13.65 39.96 17.15 60.74 4.8 27.35 5.99 55.2 5.33 82.92-.9 18.42-2.37 36.88-5.97 54.99-1.29 10.58-4.48 20.77-6.93 31.11-2.49 9.64-6.57 18.71-10.18 27.95-2.23 5.2-5.32 9.98-7.22 15.33l-1.75 1.55c-11.48-8.67-21.77-18.88-30.49-30.32l-.19-.24c-14.55-19.17-24.96-41.37-31.06-64.62-.57-2.27-1.49-4.52-1.29-6.9-.23-.45-.69-1.35-.93-1.8-1.9-9.92-3.3-19.92-4.11-29.99-.17-12.73-.44-25.5 1.3-38.13.68-.77.93-1.66.75-2.65-.12-5.12 1.52-10.1 2.39-15.11l.67-1.98c-.08-2.28.97-4.39 1.42-6.58l.05-.2c4.07-15.25 10-30.03 17.73-43.8l.14-.25c6.22-10.94 13.55-21.28 22.06-30.55l.32-.35c2.62-2.9 5.22-5.87 8.29-8.31.9-.37 1.58-.98 2.05-1.84m-18.85 43.1c-2.24 1.82-3.58 4.47-4.97 6.94-4.47 8.6-8.44 17.51-11.12 26.85-3.31 9.33-5.64 19-7.01 28.8-2.11 9.54-1.98 19.33-2.67 29.02.04 2.05-.2 4.48 1.48 6.02 2.4 2.93 8.03 1.51 8.41-2.37.63-4.84.55-9.73.95-14.58.27-10.98 2.89-21.72 4.98-32.46 3.52-11.96 7.52-23.87 13.18-35 1.49-3.35 5.16-6.36 4.14-10.33-.73-3.17-4.68-4.77-7.37-2.89m-22.73 117.26c-1.9 6.62.36 13.54 1.88 20.02 1.46 6.51 2.66 13.22 5.75 19.2 2.69 3.98 9.87.88 8.86-3.85-2.4-7.88-4.49-15.88-6.14-23.96-.79-3.53-.48-7.43-2.28-10.65-1.94-2.48-5.5-1.54-8.07-.76z"/><path d="M257.75 104.63c9.76 6.57 17.88 15.35 25.43 24.33 28.55 35.1 42.48 81.01 41.13 126-1.07 47.7-19.57 95.79-54.14 129.22-4.02 3.48-7.76 7.39-12.33 10.17 1.9-5.35 4.99-10.13 7.22-15.33 3.61-9.24 7.69-18.31 10.18-27.95 2.45-10.34 5.64-20.53 6.93-31.11 3.6-18.11 5.07-36.57 5.97-54.99.66-27.72-.53-55.57-5.33-82.92-3.5-20.78-8.73-41.38-17.15-60.74-2.6-5.58-5.51-11.01-7.91-16.68zm-45.42 48.95l.14-.25-.14.25z" fill="#9be8ca"/><path d="M243.14 114.12c-.42-1.81.26-2.42 2.05-1.84-.47.86-1.15 1.47-2.05 1.84zm-8.61 8.66l.32-.35-.32.35zm-120.13 38.24c6.6-.05 12.93 2.02 19.38 3.11l-.28.38c-3.53 4.88-4.51 11.04-6.39 16.65-2.78 11.71-4.78 23.73-4.43 35.81-.4 12.13.58 24.29 2.96 36.19.38 2.02 1.17 3.93 2.08 5.76-6.81-1.37-13.65-2.61-20.58-3.21-7.46-31.27-4.88-64.9 7.26-94.69zm263.72 3.07c6.48-.9 12.81-3.37 19.43-2.96 8.87 21.38 12.51 44.81 11.23 67.89-.95 8.91-1.38 17.98-3.9 26.63-6.91.7-13.74 1.98-20.56 3.24 5.62-16.28 5.25-33.87 4.76-50.87-.8-13.6-3.89-26.99-8.11-39.91-.44-1.46-1.48-2.57-2.49-3.64l-.36-.38zm-185.87 40.28l.88-.21-.67 1.98-.57-.75.36-1.02zm-15.47 92.02c1.77.21 2.06 1.06.88 2.56-.67-.73-.96-1.58-.88-2.56zm95.91 107.49c-1.4-.82-1.24-1.31.49-1.47l-.49 1.47zm-53.69 4.93c.47-.21 1.4-.64 1.87-.86l-.11.89-.96.45-.8-.48z" fill="#3d937d"/><path d="M226.34 155.38c2.69-1.88 6.64-.28 7.37 2.89 1.02 3.97-2.65 6.98-4.14 10.33-5.66 11.13-9.66 23.04-13.18 35-2.09 10.74-4.71 21.48-4.98 32.46-.4 4.85-.32 9.74-.95 14.58-.38 3.88-6.01 5.3-8.41 2.37-1.68-1.54-1.44-3.97-1.48-6.02.69-9.69.56-19.48 2.67-29.02 1.37-9.8 3.7-19.47 7.01-28.8 2.68-9.34 6.65-18.25 11.12-26.85 1.39-2.47 2.73-5.12 4.97-6.94zm-22.73 117.26c2.57-.78 6.13-1.72 8.07.76 1.8 3.22 1.49 7.12 2.28 10.65 1.65 8.08 3.74 16.08 6.14 23.96 1.01 4.73-6.17 7.83-8.86 3.85-3.09-5.98-4.29-12.69-5.75-19.2-1.52-6.48-3.78-13.4-1.88-20.02z" fill="#fdfdfd"/><path d="M127.11 181.16c1.88-5.61 2.86-11.77 6.39-16.65 17.04 4.18 33.1 11.94 47.66 21.66-5.78 20.75-9.7 42.23-9.16 63.83.13 5.37-.39 10.79.52 16.11.51 3.01.56 6.07.51 9.12-14.41-7.1-29.44-13.42-45.31-16.31-.91-1.83-1.7-3.74-2.08-5.76-2.38-11.9-3.36-24.06-2.96-36.19-.35-12.08 1.65-24.1 4.43-35.81zm203.75 5.02c14.51-9.8 30.59-17.47 47.62-21.71 1.01 1.07 2.05 2.18 2.49 3.64 4.22 12.92 7.31 26.31 8.11 39.91.49 17 .86 34.59-4.76 50.87-15.87 3.02-31 9.19-45.41 16.37-.3-7.13 1.63-14.12 1.09-21.26.74-22.93-3-45.77-9.14-67.82zm-136.31 11.4l.05-.2-.05.2zm-5.23 26.32c-1.19-1.45-.94-2.33.75-2.65.18.99-.07 1.88-.75 2.65zm-14.94 70.41l.24.16-.24-.16zm51.03 71.03l.19.24-.19-.24zm-1.37 42.61c.45-.25 1.34-.75 1.79-1.01l-.06.89-.91.52-.82-.4z" fill="#4a9e89"/><path d="M58.8 274.03c15.74-3.53 31.98-4.26 48.01-2.75 23.91 2.25 46.96 10.88 67.57 23.03l.24.16 2.16 1.92c-.08.98.21 1.83.88 2.56 9.25 40.13 30.68 77.77 62.31 104.43-4.68 1.25-9.25 3.45-14.14 3.56-.45.26-1.34.76-1.79 1.01h-3.17c-.47.22-1.4.65-1.87.86-3.25.17-6.45.95-9.7 1.03-50.03-5.99-97.11-33.91-125.68-75.49-12.57-17.94-21.21-38.69-24.82-60.32zm278.61 20.4c20.21-12.12 42.91-20.55 66.4-23.05 16.47-1.69 33.19-1.09 49.35 2.65-2.81 15.61-7.8 30.92-15.32 44.91-3.94 6.37-7.66 12.89-11.93 19.05-11.05 15.03-24.49 28.35-39.68 39.19-10.08 6.46-20.02 13.33-31.12 17.95-8.02 3.87-16.55 6.42-25 9.14-9.16 2.8-18.69 3.98-28.09 5.66-9.97-1.02-19.71-3.38-29.33-6.05l.49-1.47c4.22-4.2 8.97-7.87 12.86-12.42 23.37-24.22 39.27-55.1 47.44-87.63.78-2.84.79-6.57 3.93-7.93z" fill="#76dfb7"/><path d="M39.1 280.28c6.41-2.51 12.88-5.13 19.7-6.25 3.61 21.63 12.25 42.38 24.82 60.32 28.57 41.58 75.65 69.5 125.68 75.49-7.33 1.51-14.91 1.19-22.33.66-53.25-3.17-104.11-34.25-130.82-80.49-8.81-15.27-14.87-32.21-17.05-49.73zm414.06-6.25c6.82 1.16 13.33 3.74 19.75 6.27-4.66 35.28-24.25 67.54-51.12 90.44-26.61 22.89-60.61 37.36-95.71 39.67-7.99.82-16.11.67-24.06-.48 9.4-1.68 18.93-2.86 28.09-5.66 8.45-2.72 16.98-5.27 25-9.14 11.1-4.62 21.04-11.49 31.12-17.95 15.19-10.84 28.63-24.16 39.68-39.19 4.27-6.16 7.99-12.68 11.93-19.05 7.52-13.99 12.51-29.3 15.32-44.91zm-261.03 17.99c.24.45.7 1.35.93 1.8l-.89-.05-.48-.91.44-.84z" fill="#57cc9d"/></svg>