<svg xmlns="http://www.w3.org/2000/svg" viewBox="0 0 400 400" enable-background="new 0 0 400 400"><style type="text/css">.st0{fill:#2C3E50;}</style><g id="_x23_2c3e50ff"><path class="st0" d="M182.6.8c37.6-3.5 76.1 4.4 109.5 22 35.1 18.4 64.8 47.3 83.8 82.2 2.6 4.3-.1 10.3-4.9 11.5-3.9 1.1-8-1.2-9.6-4.8-16.7-30.3-41.8-56.1-72.1-72.8-29.7-16.7-64.2-24.4-98.2-22.6-35 1.5-69.5 13.3-98 33.7-32.2 22.8-56.6 56.3-68.4 93.9-7.4 22.9-9.6 47.2-8.3 71.2 1.4 20 9.8 39.5 23.7 54 13.8 14.7 33.1 24.1 53.1 26.3 21.4 2.6 43.8-2.5 61.5-14.8 20.4-13.9 34.1-37.1 36.7-61.7.9-6.6.5-13.3 1.1-19.9 2.2-24.3 13.7-47.5 31.1-64.5 17.9-17.7 42.2-29.1 67.4-30.3 23.1-1.3 46.4 6.1 65.1 19.7 26.4 18.9 43.8 50.4 44 83.1-1.5 18.9-4.2 37.8-10.4 55.7-12.1 36.4-35.2 68.9-65 92.9-30.7 24.9-69 40.6-108.5 43.7-29.9 2.5-60.4-2-88.4-13-35-13.7-66.1-37.4-88.3-67.7-2.9-3.4-2.1-9.1 1.6-11.6 3.7-2.8 9.2-1.4 11.5 2.4 18.3 24.9 42.8 45.3 71 58.1 50.3 23.1 111.2 21.7 160.4-3.6 29-14.6 53.9-37.4 71.2-64.8 15.8-25 25.4-53.8 27.8-83.2 2.6-16.5-1.2-33.5-8.5-48.4-9.8-19.5-27.3-35-47.9-42.3-17.1-6.2-36.1-6.9-53.8-2.4-18.3 4.7-35 15.5-46.5 30.5-12.1 15.4-18.4 35-18.4 54.5 0 23.6-8.8 47-23.8 65.1-17.7 21.7-44.1 36.3-72.1 38.5-19.3 1.6-38.9-2.7-55.9-11.9-26.3-14-46.5-39.5-53.5-68.6-2.9-11.5-3-23.4-2.7-35.2.6-33.3 10.1-66.3 26.8-95 20.8-35.6 52.4-64.8 89.7-82.2 21-9.5 43.4-15.7 66.2-17.7zM96.5 183.6c15.1-3.1 30.6 11.2 29.9 26.3-.9 12.8-12.4 24-25.3 24.4-12.4 0-23.5-10.3-25.6-22.3-1.9-13 8.5-25.6 21-28.4m.9 15.9c-6.3 1.3-7.5 9.4-5.2 14.4s9 5.3 13.6 3.6c5-2.1 5.4-8.8 3.9-13.3-1.7-4.8-7.8-5.8-12.3-4.7zM296.5 183.6c15.1-3 30.5 11.2 29.8 26.4-.9 12.8-12.5 24.1-25.4 24.4-14.3-.1-27.4-14.1-25.5-28.5 1.7-10.8 10.5-20 21.1-22.3m.9 15.9c-6.4 1.3-7.5 9.4-5.2 14.5 2.3 4.9 9 5.2 13.5 3.5 5-2.1 5.5-8.8 4-13.3-1.8-4.8-7.8-5.7-12.3-4.7z"/></g></svg>