<svg xmlns="http://www.w3.org/2000/svg" viewBox="0 0 376.1 320.3" enable-background="new 0 0 376.1 320.3"><style type="text/css">.st0{fill:#FFFFFF;} .st1{fill:#474F59;} .st2{fill:#CAC9C8;}</style><path class="st0" d="M165.1 61.1c6.3-1.9 12.7-4.3 19.3-3.5-13.1 3.2-24.5 12.2-30.8 24.1-6.4 11.9-7.3 26.6-2.4 39.2 5.4 14.8 18.6 26.3 34 29.7 7.5 1.9 15.5.6 23 2.8 16.9 4.2 30.8 18.5 34.6 35.5 2.2 10 1.5 20.8-2.7 30.2-5.8 13.4-17.9 24-32.2 27.3-12.5 2.7-25.4 1.2-37.6-2-23-6.3-43.4-21.6-55.8-42-15.2-23.9-18.4-54.7-9.3-81.5 5.3-14.4 13.3-27.9 24.6-38.4 9.8-9.7 22.3-16.5 35.3-21.4m27.2 123.3c-5.5 1.4-10.1 5.8-11.7 11.2-1.8 4.8-.1 10.1 2.7 14.1 5.7 8.4 19.7 8.2 25.6.2 2.9-4 3.8-9.4 2.5-14.2-1.8-8.1-11.2-13.4-19.1-11.3z"/><path class="st1" d="M260 14.2c1-8.2 8.8-14.9 17.1-14.1 8.9.3 16.3 9.3 14.8 18.1-.5 4.3-3.1 8.3-6.5 10.9-4.2 2.9-9.8 3.8-14.7 2.1-7-2.3-11.5-9.7-10.7-17zm-75.6 43.4c14.7-3.3 30.1-.8 44.2 4.1 22.7 8.1 42 25.2 52.9 46.7 11.5 22.3 13.6 49.3 5.8 73.1-9.5 30.1-34.8 54.5-65.3 62.8-4.6 1.1-9.3 3-14.1 2.1 14.3-3.3 26.5-13.9 32.2-27.3 4.3-9.4 4.9-20.2 2.7-30.2-3.9-17-17.7-31.3-34.6-35.5-7.5-2.2-15.4-.9-23-2.8-15.4-3.4-28.6-15-34-29.7-4.9-12.6-4-27.3 2.4-39.2 6.3-11.9 17.7-20.9 30.8-24.1m9.7 30.6c-7.8.8-14.2 8-14.1 15.9-.3 8.6 7.5 16.3 16.1 16 8.5.1 16.1-7.5 15.9-16 .3-9.3-8.8-17.4-17.9-15.9zm-188.8 24.3c5.7-2.4 12.3 3.6 10.5 9.5-1.2 5.9-9.4 8.1-13.4 3.7-4.3-3.8-2.5-11.5 2.9-13.2zm275.8 179.7c5.8-5.5 15.5-5.6 21.4-.3 5 4.4 6.8 11.9 4.3 18.1-1.5 3.9-4.7 7-8.4 8.8-6.8 2.9-15.5.7-19.6-5.6-4.6-6.3-3.5-15.8 2.3-21z"/><path class="st2" d="M189.1 27.9c36.3-2.2 73.1 12.6 97.7 39.3 13.3 14.4 23.4 31.8 28.6 50.7 2.5 6.7 2.8 14 4.3 21 1 7 .4 14.1.5 21.1-1.7 10.9-2.7 22.1-6.9 32.4-5.1 13.8-11.5 27.5-21.5 38.5-3 3.4-5.9 6.8-9.1 9.9-8.3 7.6-16.8 15.2-27 20.1-9.6 5-19.6 9.1-30 11.9-10.2 1.5-20.4 4.2-30.8 3.4-5.7.2-11.4-.2-16.9-1.4-39.5-5.3-75.4-31.3-93-67-8-15.6-12.4-33.2-13.1-50.8-1-9.7 1-19.4 2-29 2.5-11.6 6.7-22.7 11.6-33.5 10.4-18.5 24.6-35 42.5-46.5 10.7-7.9 23.4-12.3 36-16.1 8.1-2.7 16.7-2.9 25.1-4m-4.7 29.7c-6.6-.8-13.1 1.6-19.3 3.5-13 4.9-25.5 11.7-35.4 21.5-11.3 10.5-19.3 24.1-24.6 38.4-9 26.8-5.8 57.5 9.3 81.5 12.5 20.3 32.9 35.6 55.8 42 12.2 3.2 25.2 4.7 37.6 2 4.8.9 9.5-1 14.1-2.1 30.4-8.3 55.8-32.8 65.3-62.8 7.8-23.9 5.7-50.8-5.8-73.1-10.9-21.5-30.2-38.6-52.9-46.7-14-5-29.4-7.5-44.1-4.2zm-136.1-9c7-2.5 15.2 3 15.6 10.4.9 7.2-5.9 13.9-13 13-6.8-.4-12.2-7.4-10.7-14.1.7-4.3 4-8 8.1-9.3zm317.9 35.6c5.9-1.7 11.7 4.9 9.4 10.5-1.8 5.7-10 7.2-13.7 2.5-3.9-4.3-1.4-11.9 4.3-13zm-172.1 4c9.1-1.4 18.2 6.6 17.9 15.9.2 8.5-7.4 16.1-15.9 16-8.6.3-16.3-7.4-16.1-16-.1-7.9 6.3-15.1 14.1-15.9zm-136 35.8c2.8-1.4 7.1 1.7 6.1 5-.7 2.4-3.6 4.3-6 2.8-3.1-1.5-3.5-6.3-.1-7.8zm134.2 60.4c7.9-2.1 17.3 3.2 19.1 11.3 1.3 4.8.3 10.1-2.5 14.2-5.9 8.1-19.9 8.2-25.6-.2-2.8-4-4.5-9.3-2.7-14.1 1.6-5.4 6.2-9.8 11.7-11.2zm27.7 125.7c.9-3.6 4.3-6.3 8-6.3 2.2.2 4.2 1.2 6.3 2 1 2.8 2.9 6 1.4 9-1.1 3.2-4.3 5.4-7.7 5.6-2.2-.2-4.2-1.2-6.3-2-.9-2.7-2.7-5.5-1.7-8.3z"/></svg>