<svg version="1" xmlns="http://www.w3.org/2000/svg" width="700pt" height="700pt" viewBox="0 0 700.000000 700.000000"><path d="M341.4 86.8c-24.7 24.4-40.5 47.7-55.6 82.2-9.6 21.9-16.9 52.5-19.4 81-.8 9.1-.8 33.2 0 41.7l.4 5.1-8.1-6.1c-4.5-3.3-9.8-7.3-11.7-8.7-15.8-12-58.3-33.7-81.1-41.4-18.1-6.1-35-10.8-47.4-13-1.6-.3-3.9-.8-5.1-1-2.3-.5-9.2-1.4-16.4-2.1-2.5-.3-8.9-.7-14.2-1-8.7-.4-9.8-.2-9.9 1.3-.3 3.9.1 17 .7 21.2 1.3 10 1.6 11.9 4.1 22.5 7.4 31.8 23.9 64.1 46.7 91.4 7.4 8.9 22.6 24.7 28.9 29.9l3.8 3.2-6.8.1c-3.7 0-7.6.2-8.6.4s-5.1.6-9 .9c-4 .4-11 1.3-15.7 2.1-4.7.8-9.8 1.7-11.5 2-12.6 2.2-37.7 9.8-48.5 14.7-21.3 9.6-41.3 23-53.8 36.1l-3.3 3.4 6.8 6.5c38.3 36.7 83.7 57.4 140.5 64.3 11.2 1.3 48.4 1.3 62.8 0 9.4-.8 27.5-3.4 35-5 13.1-2.7 13.3-2.7 11.1 1.3-.9 1.7-2.1 7.8-2.6 13.4-.4 4.5 1.3 14.3 3.5 20.2 4.5 12 18.6 28.5 32 37.6 3.6 2.4 6.7 4.7 6.8 5.2.2.4.7.8 1.2.8.4 0 3.4 1.6 6.6 3.6 11.5 6.9 42.1 20.4 46.4 20.4 2.3 0 19.9-7 31-12.3 11.8-5.7 24.6-13.4 32.5-19.4 8.3-6.4 20.4-19.1 24.3-25.7 8.2-13.4 10.6-29.5 6.4-41.9-1-3.1-1.6-5.7-1.3-5.7.3 0 2.2.4 4.1.9 1.9.6 5.1 1.2 7 1.5 1.9.3 4.6.8 6 1.1 1.3.2 4 .7 6 1 2 .3 4.6.7 6 1 1.3.2 4.8.7 7.9 1 3.1.3 8.1.8 11.1 1.2 12.2 1.5 66 .6 68.9-1.1.3-.2 2.9-.7 5.6-1 17.2-2.3 41.2-9.2 59.5-17.1 24.2-10.4 48.2-26.2 66.3-43.4 3.7-3.6 7.3-6.9 8-7.3 1.7-1-11.8-13.7-23.4-22-9.5-6.9-33.7-19.6-41.9-22.2-2.5-.8-6.4-2.2-8.8-3-9.1-3.4-29.7-8.3-42.7-10.1-2.2-.4-4.7-.8-5.5-1-.8-.2-5.1-.7-9.5-1.1-4.4-.4-9.1-.8-10.5-.9-1.4-.2-5.1-.3-8.2-.4l-5.8-.1 4.8-4.2c31.7-28.4 55.8-63.4 68.6-99.5 3-8.5 7.2-24.1 8-29.8.4-2.3.9-5.2 1.1-6.5.7-3.5 1.8-17.1 1.9-23.9l.1-5.6-7 .1c-7.4.1-24.7 1.4-25.5 1.9-.3.2-2.8.6-5.7 1-2.8.3-10 1.7-16 3.1-5.9 1.4-11.7 2.7-12.8 2.9-3.9.8-29.1 9.3-36.5 12.3-29.2 11.8-58.3 27.9-81.1 44.8l-9.7 7.2.5-6.1c.8-9.5.7-29.1-.1-40.2-.9-13.1-3.3-28-6.8-42-1.1-4.4-2.1-8.7-2.3-9.5-2.2-10-13.5-38.4-20.7-51.7-12.9-24-28.6-44.9-46.7-62-3.6-3.5-6.9-6.3-7.2-6.3-.3 0-4.1 3.5-8.5 7.8z"/></svg>